<svg style="margin:auto;" id="symbologySVG" width="250.0" height="250.0" xmlns:symbology="http:www.scavecgraph.net" xmlns="http://www.w3.org/2000/svg" xmlns:xlink="http://www.w3.org/1999/xlink" contentScriptType="text/ecmascript" contentStyleType="text/css" preserveAspectRatio="xMidYMid meet" version="1.0" zoomAndPan="magnify">  
    <desc>Generated by Scavecgraph</desc>
	<defs/>
    <g id="root" transform="scale(1) ">
        <a title="Scavecgraph Info" xlink:href="https://www.scavecgraph.net/messages/channel-access" target="_blank">            
            <path fill="#ffffff" fill-opacity="0.0" id="el0ec80142" stroke="#0178af" stroke-opacity="1.0" stroke-width="20" symbology:type="Ellipse" d="M100 10 C50.3 10 10 50.3 10 100 C10 149.71 50.3 190 100 190 C149.71 190 190 149.71 190 100 C190 50.3 149.71 10 100 10  Z"/>
            <path fill="#0178af" fill-opacity="1.0" id="elc5c8a84f" stroke="#ffffff" stroke-opacity="1.0" stroke-width="0" symbology:type="Line" d="M42.67 33.61 L29.03 48.23 C29.03 48.23 29.03 48.23 29.03 48.23 L164.34 174.4 C164.34 174.4 164.34 174.4 164.34 174.4 L177.98 159.78 C177.98 159.78 177.98 159.78 177.98 159.78 L42.67 33.61 C42.67 33.61 42.67 33.61 42.67 33.61 Z"/>
            <path fill="#0178af" fill-opacity="1.0" id="el8299ee49" stroke="#ffffff" stroke-opacity="1.0" stroke-width="0" symbology:type="Symbol" d="M93.82 60.8 C71.53 62.66 44.35 76.02 24.88 94.67 C19.61 99.71 19.61 100.17 25.63 105.73 C40.03 119.19 58.91 130.28 76.84 135.7 C91.35 140.12 109.92 140.12 124.45 135.7 C142.45 130.2 161.2 119.27 175.87 105.57 C179.15 102.49 180.59 100.74 180.59 99.91 C180.59 97.66 167.31 86.09 157.36 79.63 C139.65 68.25 123.37 62.21 106.7 60.8 C103.37 60.53 100.19 60.37 99.6 60.39 C99.06 60.39 96.45 60.62 93.82 60.8  Z M108.41 69.87 C119.02 72.67 127.85 81.59 130.67 92.21 C131.7 96.09 131.64 103.56 130.61 107.59 C127.91 118.12 118.84 127.2 108.34 129.87 C104.28 130.9 97.05 130.9 92.94 129.87 C82.35 127.13 73.35 118.17 70.63 107.57 C69.63 103.7 69.63 96.02 70.63 92.14 C72.12 86.49 74.38 82.6 78.88 78.16 C83.27 73.7 87.23 71.38 92.64 69.89 C96.45 68.87 104.57 68.87 108.41 69.87  Z M95.14 81.99 C88.99 83.95 84.63 88.37 82.73 94.67 C79.57 104.77 85.66 115.38 96.24 118.09 C100.48 119.14 104.2 118.74 108.49 116.74 C115.59 113.41 120.31 105.31 119.32 98.16 C118.67 93.25 116.42 88.56 116.42 92.02 C116.42 93.59 114.16 96.88 112.41 97.78 C108.41 99.8 104.57 99.16 101.75 96.05 C98.6 92.56 98.57 88.1 101.7 84.62 C102.74 83.48 104.06 82.45 104.69 82.19 C105.7 81.87 105.7 81.84 104.28 81.45 C101.5 80.84 98.09 81.06 95.14 81.99  Z "/>
            <path transform="scale(0.86) translate(0 86)" fill="red" d="M9.42 29.05L9.42 38.70Q9.42 41.82 10.11 42.58Q11.04 43.65 12.92 43.65L14.18 43.65L14.18 44.56L0 44.56L0 43.65L1.25 43.65Q3.34 43.65 4.25 42.29Q4.74 41.53 4.74 38.70L4.74 17.31Q4.74 14.18 4.08 13.43Q3.13 12.35 1.25 12.35L0 12.35L0 11.45L12.13 11.45Q16.58 11.45 19.14 12.37Q21.70 13.28 23.46 15.45Q25.22 17.63 25.22 20.61Q25.22 24.66 22.55 27.20Q19.87 29.74 14.99 29.74Q13.79 29.74 12.40 29.57Q11.01 29.39 9.42 29.05M9.42 27.66Q10.72 27.91 11.72 28.03Q12.72 28.15 13.43 28.15Q15.97 28.15 17.81 26.18Q19.65 24.22 19.65 21.09Q19.65 18.95 18.77 17.10Q17.90 15.26 16.28 14.34Q14.67 13.43 12.62 13.43Q11.38 13.43 9.42 13.89L9.42 27.66ZM35.08 21.53L35.08 26.56Q37.89 21.53 40.84 21.53Q42.19 21.53 43.07 22.35Q43.95 23.17 43.95 24.24Q43.95 25.20 43.31 25.85Q42.68 26.51 41.80 26.51Q40.94 26.51 39.88 25.67Q38.82 24.83 38.31 24.83Q37.87 24.83 37.35 25.32Q36.25 26.32 35.08 28.61L35.08 39.33Q35.08 41.19 35.55 42.14Q35.86 42.80 36.67 43.24Q37.48 43.68 38.99 43.68L38.99 44.56L27.54 44.56L27.54 43.68Q29.25 43.68 30.08 43.14Q30.69 42.75 30.93 41.89Q31.05 41.48 31.05 39.53L31.05 30.86Q31.05 26.95 30.90 26.21Q30.74 25.46 30.31 25.12Q29.88 24.78 29.25 24.78Q28.49 24.78 27.54 25.15L27.29 24.27L34.06 21.53L35.08 21.53ZM56.13 21.53Q61.21 21.53 64.28 25.39Q66.89 28.69 66.89 32.96Q66.89 35.96 65.45 39.04Q64.01 42.11 61.49 43.68Q58.96 45.24 55.86 45.24Q50.81 45.24 47.83 41.21Q45.31 37.82 45.31 33.59Q45.31 30.52 46.84 27.48Q48.36 24.44 50.85 22.99Q53.34 21.53 56.13 21.53M55.37 23.12Q54.08 23.12 52.77 23.89Q51.46 24.66 50.66 26.59Q49.85 28.52 49.85 31.54Q49.85 36.43 51.79 39.97Q53.74 43.51 56.91 43.51Q59.28 43.51 60.82 41.55Q62.35 39.60 62.35 34.84Q62.35 28.88 59.79 25.46Q58.06 23.12 55.37 23.12ZM76.76 9.84L76.76 26.20Q79.47 23.22 81.05 22.38Q82.64 21.53 84.23 21.53Q86.13 21.53 87.50 22.58Q88.87 23.63 89.53 25.88Q89.99 27.44 89.99 31.59L89.99 39.50Q89.99 41.63 90.33 42.41Q90.58 42.99 91.16 43.33Q91.75 43.68 93.31 43.68L93.31 44.56L82.32 44.56L82.32 43.68L82.84 43.68Q84.40 43.68 85.01 43.20Q85.62 42.72 85.86 41.80Q85.94 41.41 85.94 39.50L85.94 31.59Q85.94 27.93 85.56 26.78Q85.18 25.63 84.35 25.06Q83.52 24.49 82.35 24.49Q81.15 24.49 79.86 25.12Q78.56 25.76 76.76 27.69L76.76 39.50Q76.76 41.80 77.01 42.36Q77.27 42.92 77.97 43.30Q78.66 43.68 80.37 43.68L80.37 44.56L69.29 44.56L69.29 43.68Q70.78 43.68 71.63 43.21Q72.12 42.97 72.41 42.29Q72.71 41.60 72.71 39.50L72.71 19.26Q72.71 15.43 72.52 14.55Q72.34 13.67 71.96 13.35Q71.58 13.04 70.95 13.04Q70.43 13.04 69.29 13.43L68.95 12.57L75.63 9.84L76.76 9.84ZM100.88 9.84Q101.90 9.84 102.62 10.56Q103.34 11.28 103.34 12.30Q103.34 13.33 102.62 14.06Q101.90 14.79 100.88 14.79Q99.85 14.79 99.12 14.06Q98.39 13.33 98.39 12.30Q98.39 11.28 99.11 10.56Q99.83 9.84 100.88 9.84M102.91 21.53L102.91 39.50Q102.91 41.60 103.21 42.30Q103.52 42.99 104.11 43.33Q104.71 43.68 106.30 43.68L106.30 44.56L95.43 44.56L95.43 43.68Q97.07 43.68 97.63 43.36Q98.19 43.04 98.52 42.31Q98.85 41.58 98.85 39.50L98.85 30.88Q98.85 27.25 98.63 26.17Q98.46 25.39 98.10 25.09Q97.73 24.78 97.09 24.78Q96.41 24.78 95.43 25.15L95.09 24.27L101.83 21.53L102.91 21.53ZM115.21 26.05Q118.46 21.53 122.22 21.53Q125.66 21.53 128.22 24.48Q130.79 27.42 130.79 32.52Q130.79 38.48 126.83 42.11Q123.44 45.24 119.26 45.24Q117.31 45.24 115.30 44.53Q113.28 43.82 111.18 42.41L111.18 19.24Q111.18 15.43 111.00 14.55Q110.82 13.67 110.42 13.35Q110.03 13.04 109.45 13.04Q108.76 13.04 107.74 13.43L107.40 12.57L114.11 9.84L115.21 9.84L115.21 26.05M115.21 27.61L115.21 40.99Q116.46 42.21 117.79 42.83Q119.12 43.46 120.51 43.46Q122.73 43.46 124.65 41.02Q126.56 38.57 126.56 33.91Q126.56 29.61 124.65 27.31Q122.73 25 120.29 25Q118.99 25 117.70 25.66Q116.72 26.15 115.21 27.61ZM139.77 9.84Q140.80 9.84 141.52 10.56Q142.24 11.28 142.24 12.30Q142.24 13.33 141.52 14.06Q140.80 14.79 139.77 14.79Q138.75 14.79 138.01 14.06Q137.28 13.33 137.28 12.30Q137.28 11.28 138.00 10.56Q138.72 9.84 139.77 9.84M141.80 21.53L141.80 39.50Q141.80 41.60 142.10 42.30Q142.41 42.99 143.01 43.33Q143.60 43.68 145.19 43.68L145.19 44.56L134.33 44.56L134.33 43.68Q135.96 43.68 136.52 43.36Q137.08 43.04 137.41 42.31Q137.74 41.58 137.74 39.50L137.74 30.88Q137.74 27.25 137.52 26.17Q137.35 25.39 136.99 25.09Q136.62 24.78 135.99 24.78Q135.30 24.78 134.33 25.15L133.98 24.27L140.72 21.53L141.80 21.53ZM154.47 14.84L154.47 22.19L159.69 22.19L159.69 23.90L154.47 23.90L154.47 38.40Q154.47 40.58 155.09 41.33Q155.71 42.09 156.69 42.09Q157.50 42.09 158.25 41.59Q159.01 41.09 159.42 40.11L160.38 40.11Q159.52 42.50 157.96 43.71Q156.40 44.92 154.74 44.92Q153.61 44.92 152.54 44.30Q151.46 43.68 150.95 42.52Q150.44 41.36 150.44 38.94L150.44 23.90L146.90 23.90L146.90 23.10Q148.24 22.56 149.65 21.28Q151.05 20.00 152.15 18.24Q152.71 17.31 153.71 14.84L154.47 14.84ZM165.63 30.62Q165.60 35.60 168.04 38.43Q170.48 41.26 173.78 41.26Q175.98 41.26 177.60 40.05Q179.22 38.84 180.32 35.91L181.08 36.40Q180.57 39.75 178.10 42.49Q175.63 45.24 171.92 45.24Q167.90 45.24 165.03 42.10Q162.16 38.96 162.16 33.67Q162.16 27.93 165.10 24.72Q168.04 21.51 172.49 21.51Q176.25 21.51 178.66 23.99Q181.08 26.46 181.08 30.62L165.63 30.62M165.63 29.20L175.98 29.20Q175.85 27.05 175.46 26.17Q174.85 24.80 173.65 24.02Q172.44 23.24 171.12 23.24Q169.09 23.24 167.49 24.82Q165.89 26.39 165.63 29.20ZM199.85 42.04Q198.22 43.75 196.66 44.49Q195.09 45.24 193.29 45.24Q189.62 45.24 186.89 42.18Q184.16 39.11 184.16 34.30Q184.16 29.49 187.18 25.50Q190.21 21.51 194.97 21.51Q197.92 21.51 199.85 23.39L199.85 19.26Q199.85 15.43 199.67 14.55Q199.49 13.67 199.10 13.35Q198.71 13.04 198.12 13.04Q197.49 13.04 196.44 13.43L196.12 12.57L202.78 9.84L203.88 9.84L203.88 35.69Q203.88 39.62 204.06 40.49Q204.25 41.36 204.65 41.70Q205.05 42.04 205.59 42.04Q206.25 42.04 207.35 41.63L207.62 42.48L200.98 45.24L199.85 45.24L199.85 42.04M199.85 40.33L199.85 28.81Q199.71 27.15 198.97 25.78Q198.24 24.41 197.03 23.72Q195.83 23.02 194.68 23.02Q192.53 23.02 190.84 24.95Q188.62 27.49 188.62 32.37Q188.62 37.30 190.77 39.93Q192.92 42.55 195.56 42.55Q197.78 42.55 199.85 40.33ZM228.78 35.79L227.86 35.79L225.71 16.02Q225.56 14.72 225.56 14.09Q225.56 12.55 226.38 11.62Q227.20 10.69 228.34 10.69Q229.49 10.69 230.29 11.62Q231.08 12.55 231.08 14.38Q231.08 14.97 230.98 16.02L228.78 35.79M228.30 39.84Q229.42 39.84 230.21 40.64Q231.01 41.43 231.01 42.53Q231.01 43.65 230.21 44.45Q229.42 45.24 228.30 45.24Q227.17 45.24 226.38 44.45Q225.59 43.65 225.59 42.53Q225.59 41.43 226.38 40.64Q227.17 39.84 228.30 39.84Z"/>
        </a>        
    </g>
</svg>
